<svg xmlns="http://www.w3.org/2000/svg" xmlns:xlink="http://www.w3.org/1999/xlink" id="Layer_1" x="0px" y="0px" viewBox="0 0 435 163" style="enable-background:new 0 0 435 163;" xml:space="preserve"><style type="text/css">	.st0{fill:#1091EF;}	.st1{fill:#FFFFFF;}</style><path class="st0" d="M42.1,13.2L17.6,51.5H3.3L28,12.9H2.3V1h39.7V13.2z"></path><circle class="st0" cx="147" cy="26" r="25"></circle><rect x="57" y="1" class="st0" width="50" height="50"></rect><g>	<path class="st1" d="M57.7,87c6.1,5.1,9.9,11.7,11.4,20H46.2c-0.7-3.2-2.2-5.8-4.5-7.7c-2.3-1.9-5.3-2.8-8.8-2.8  c-2.8,0-4.9,0.6-6.3,1.8c-1.4,1.2-2.1,2.9-2.1,5.1c0,2.5,1.3,4.3,3.9,5.6c2.6,1.2,6.7,2.5,12.4,3.7c6.1,1.4,11.1,2.9,15,4.4  c3.9,1.5,7.3,3.9,10.2,7.2c2.9,3.3,4.3,7.8,4.3,13.5c0,4.6-1.2,8.6-3.7,12.2c-2.5,3.5-6.1,6.3-10.7,8.3c-4.7,2-10.2,3-16.6,3  c-10.8,0-19.4-2.4-25.9-7.2c-6.5-4.8-10.4-11.6-11.9-20.5H25c0.4,3.4,1.8,6.1,4.4,7.9c2.5,1.8,5.8,2.7,9.8,2.7  c2.8,0,4.9-0.6,6.3-1.9c1.4-1.3,2.1-3,2.1-5.1c0-2.8-1.3-4.7-3.9-5.9c-2.6-1.2-6.9-2.5-12.8-3.8c-5.9-1.2-10.8-2.6-14.6-4  c-3.8-1.4-7.1-3.7-9.9-6.9c-2.8-3.2-4.2-7.6-4.2-13.1c0-7.2,2.7-13,8.2-17.4c5.4-4.4,13.1-6.7,23-6.7C43.6,79.4,51.6,82,57.7,87z"></path>	<path class="st1" d="M158.9,124.8h-55.4c0.3,6,1.8,10.3,4.6,13c2.8,2.6,6.3,3.9,10.6,3.9c3.6,0,6.6-0.9,9-2.7c2.4-1.8,4-4.2,4.7-7  h25.9c-1.1,5.6-3.3,10.7-6.9,15.1c-3.5,4.4-8,7.9-13.5,10.4c-5.4,2.5-11.5,3.8-18.2,3.8c-7.8,0-14.8-1.6-20.8-4.9  c-6.1-3.3-10.8-8-14.2-14.2c-3.4-6.2-5.2-13.5-5.2-21.8c0-8.4,1.7-15.7,5.1-21.8c3.4-6.2,8.1-10.9,14.2-14.2  c6.1-3.3,13.1-4.9,20.9-4.9c7.9,0,14.9,1.6,20.9,4.9c6,3.2,10.7,7.8,14,13.7c3.3,5.9,4.9,12.6,4.9,20.3  C159.7,120.2,159.4,122.4,158.9,124.8z M130.7,102.7c-2.9-2.6-6.5-3.9-10.8-3.9c-4.5,0-8.2,1.3-11.2,4c-3,2.7-4.6,6.6-5,11.7h31.2  C135,109.2,133.6,105.3,130.7,102.7z"></path>	<path class="st1" d="M209.3,136.4l17.3-56h26l-28.3,79.9H194l-28.3-79.9h26L209.3,136.4z"></path>	<path class="st1" d="M338,124.8h-55.4c0.3,6,1.8,10.3,4.6,13c2.8,2.6,6.3,3.9,10.6,3.9c3.6,0,6.6-0.9,9-2.7c2.4-1.8,4-4.2,4.7-7  h25.9c-1.1,5.6-3.3,10.7-6.9,15.1c-3.5,4.4-8,7.9-13.5,10.4c-5.4,2.5-11.5,3.8-18.2,3.8c-7.8,0-14.8-1.6-20.8-4.9  c-6.1-3.3-10.8-8-14.2-14.2c-3.4-6.2-5.2-13.5-5.2-21.8c0-8.4,1.7-15.7,5.1-21.8c3.4-6.2,8.1-10.9,14.2-14.2  c6.1-3.3,13.1-4.9,20.9-4.9c7.9,0,14.9,1.6,20.9,4.9c6,3.2,10.7,7.8,14,13.7c3.3,5.9,4.9,12.6,4.9,20.3  C338.7,120.2,338.5,122.4,338,124.8z M309.7,102.7c-2.9-2.6-6.5-3.9-10.8-3.9c-4.5,0-8.2,1.3-11.2,4c-3,2.7-4.6,6.6-5,11.7h31.2  C314,109.2,312.6,105.3,309.7,102.7z"></path>	<path class="st1" d="M423.9,88.7c5.4,6.1,8.1,14.5,8.1,25.2v46.4h-24.5v-43.5c0-5.3-1.4-9.5-4.2-12.5c-2.8-3-6.6-4.5-11.2-4.5  c-5,0-8.9,1.6-11.8,4.7c-2.9,3.1-4.4,7.6-4.4,13.5v42.4h-24.5V80.4h24.5V95c2.3-4.8,5.7-8.5,10.2-11.3c4.5-2.8,9.9-4.2,16-4.2  C411.2,79.6,418.5,82.6,423.9,88.7z"></path></g></svg>